<?xml version="1.0" encoding="iso-8859-1"?>
<!-- Uploaded to: SVG Repo, www.svgrepo.com, Generator: SVG Repo Mixer Tools -->
<svg height="800px" width="800px" version="1.1" id="Layer_1" xmlns="http://www.w3.org/2000/svg" xmlns:xlink="http://www.w3.org/1999/xlink" 
	 viewBox="0 0 310 330" xml:space="preserve">
<g id="XMLID_1247_">
	<polygon id="XMLID_1248_" style="fill:#FFDA44;" points="217.277,25 187.935,31.246 203.492,104.348 103.455,132.093 90,125 
		40,125 40,225 70,225 70,172.236 209.743,133.716 239.976,275.769 269.318,269.523 	"/>
	<polygon id="XMLID_1249_" style="fill:#FFE98F;" points="217.277,25 217.25,25.006 217.25,25 150,25 150,55 192.99,55 
		203.492,104.348 140,121.957 140,152.94 209.743,133.716 239.976,275.769 269.318,269.523 	"/>
	<polygon id="XMLID_1250_" style="fill:#EA348B;" points="177.25,25 150,25 150,55 177.148,55 	"/>
	<path id="XMLID_1251_" style="fill:#AF2768;" d="M120,115c0,11.046-8.954,20-20,20H40c-11.046,0-20-8.954-20-20l0,0
		c0-11.046,8.954-20,20-20h60C111.046,95,120,103.954,120,115L120,115z"/>
	<path id="XMLID_1252_" style="fill:#EA348B;" d="M100,95H60v40h40c11.046,0,20-8.954,20-20S111.046,95,100,95z"/>
	<g id="XMLID_1253_">
		<circle id="XMLID_1254_" style="fill:#00A0A6;" cx="240" cy="215" r="70"/>
		<path id="XMLID_1255_" style="fill:#006C70;" d="M240,285c-38.66,0-70-31.34-70-70s31.34-70,70-70"/>
		<circle id="XMLID_1256_" style="fill:#00D7DF;" cx="240" cy="215" r="40"/>
		<path id="XMLID_1257_" style="fill:#00A0A6;" d="M240,255c-22.092,0-40-17.908-40-40s17.908-40,40-40"/>
	</g>
	<circle id="XMLID_1258_" style="fill:#00A0A6;" cx="60" cy="225" r="60"/>
	<path id="XMLID_1259_" style="fill:#006C70;" d="M60,285c-33.138,0-60-26.862-60-60s26.862-60,60-60"/>
	<path id="XMLID_1260_" style="fill:#00D7DF;" d="M87.5,225c0,15.188-12.312,27.5-27.5,27.5S32.5,240.188,32.5,225
		s12.312-27.5,27.5-27.5S87.5,209.813,87.5,225z"/>
	<path id="XMLID_1262_" style="fill:#00A0A6;" d="M60,252.5c-15.188,0-27.5-12.313-27.5-27.5s12.312-27.5,27.5-27.5"/>
</g>
</svg>