<?xml version="1.0" encoding="iso-8859-1"?>
<!-- Uploaded to: SVG Repo, www.svgrepo.com, Generator: SVG Repo Mixer Tools -->
<svg height="800px" width="800px" version="1.1" id="Capa_1" xmlns="http://www.w3.org/2000/svg" xmlns:xlink="http://www.w3.org/1999/xlink" 
	 viewBox="0 0 464 464" xml:space="preserve">
<g>
	<path style="fill:#CACDD2;" d="M128.072,132h0.096C128.137,132,128.104,132,128.072,132z"/>
	<path style="fill:#CACDD2;" d="M136,172h9.752l-7.059-24h-16.68l7.89,26.827C131.413,173.047,133.635,172,136,172z"/>
	<path style="fill:#CACDD2;" d="M240.075,132h0.096C240.139,132,240.107,132,240.075,132z"/>
	<polygon style="fill:#CACDD2;" points="250.695,148 234.016,148 241.075,172 257.754,172 	"/>
	<path style="fill:#CACDD2;" d="M358.383,148.25c4.262-1.141,8.648,1.43,9.773,5.695l-6.852-26.023
		C359.453,120.898,353.09,116,345.832,116H320c-4.418,0-8,3.578-8,8s3.582,8,8,8h25.832l6.848,26.023
		C351.559,153.75,354.109,149.375,358.383,148.25z"/>
	<path style="fill:#55323C;" d="M127.419,268h16.126c-2.09-18.818-11.459-35.464-25.222-47.061l-8.94,13.41
		C118.924,242.922,125.51,254.715,127.419,268z"/>
	<path style="fill:#55323C;" d="M72,332c-30.879,0-56-25.125-56-56s25.121-56,56-56c8.617,0,16.784,1.96,24.084,5.453l8.935-13.403
		C95.12,206.918,83.898,204,72,204c-39.699,0-72,32.297-72,72s32.301,72,72,72c36.995,0,67.551-28.05,71.545-64h-16.126
		C123.524,311.099,100.162,332,72,332z"/>
	<path style="fill:#55323C;" d="M392,204c-3.556,0-7.05,0.269-10.469,0.77l4.106,15.602c2.09-0.238,4.211-0.372,6.364-0.372
		c30.879,0,56,25.125,56,56s-25.121,56-56,56s-56-25.125-56-56c0-23.13,14.1-43.032,34.157-51.562l-4.101-15.583
		C339.142,219.291,320,245.443,320,276c0,39.703,32.301,72,72,72s72-32.297,72-72S431.699,204,392,204z"/>
	<path style="fill:#D2504B;" d="M384.262,278.039c0.945,3.586,4.188,5.961,7.734,5.961c0.672,0,1.359-0.086,2.039-0.266
		c4.273-1.125,6.824-5.5,5.703-9.773l-14.102-53.589l-4.106-15.602l-13.374-50.824c-1.125-4.266-5.512-6.836-9.773-5.695
		c-4.273,1.125-6.824,5.5-5.703,9.773L356.358,172h-98.603h-16.68h-95.323H136c-2.365,0-4.587,1.047-6.097,2.827
		c-0.198,0.234-0.387,0.477-0.559,0.736l-24.325,36.488l-8.935,13.403l-30.74,46.11c-1.637,2.453-1.789,5.609-0.398,8.211
		C66.34,282.375,69.051,284,72,284h55.419h16.126H280c0.344,0,0.684-0.028,1.022-0.072c0.097-0.012,0.193-0.032,0.291-0.048
		c0.272-0.045,0.541-0.104,0.806-0.177c0.047-0.013,0.094-0.017,0.14-0.031c0.045-0.013,0.086-0.032,0.13-0.045
		c0.149-0.047,0.296-0.099,0.442-0.154c0.127-0.048,0.251-0.097,0.374-0.151c0.122-0.053,0.242-0.109,0.361-0.168
		c0.143-0.071,0.282-0.146,0.42-0.225c0.097-0.056,0.194-0.112,0.289-0.172c0.151-0.096,0.297-0.197,0.441-0.302
		c0.079-0.058,0.158-0.113,0.235-0.174c0.155-0.122,0.301-0.251,0.445-0.383c0.061-0.056,0.125-0.109,0.185-0.167
		c0.173-0.169,0.337-0.346,0.494-0.529c0.023-0.027,0.049-0.05,0.071-0.076l0.017-0.021c0.001-0.001,0.001-0.002,0.002-0.003
		l75.167-90.2l4.725,17.955l4.101,15.583L384.262,278.039z M173.987,268l-23.529-80h95.32l23.529,80H173.987z M109.383,234.349
		l8.94-13.41l17.446-26.17L157.307,268h-13.762h-16.126h-40.47L109.383,234.349z M283.448,259.367L262.457,188h80.461
		L283.448,259.367z"/>
	<path style="fill:#7D5050;" d="M152,148c4.418,0,8-3.578,8-8s-3.582-8-8-8h-23.831h-0.096h-8.561c-2.664,0-5.281-1.086-7.168-2.969
		l-2.688-2.688c-3.125-3.125-8.188-3.125-11.313,0s-3.125,8.188,0,11.313l2.691,2.688c4.938,4.938,11.5,7.656,18.477,7.656h2.501
		h16.68H152z"/>
	<path style="fill:#7D5050;" d="M264,148c4.418,0,8-3.578,8-8s-3.582-8-8-8h-23.829h-0.096h-8.563c-2.664,0-5.281-1.086-7.168-2.969
		l-2.688-2.688c-3.125-3.125-8.188-3.125-11.313,0s-3.125,8.188,0,11.313l2.691,2.688c4.938,4.938,11.5,7.656,18.477,7.656h2.504
		h16.68H264z"/>
</g>
</svg>